<mxfile host="drawio-plugin" modified="2022-03-02T20:40:48.016Z" agent="5.0 (X11; Linux x86_64) AppleWebKit/537.36 (KHTML, like Gecko) Chrome/89.0.4389.114 Safari/537.36" etag="l00s-ipWedoyXpsntZXX" version="15.5.4" type="embed"><diagram id="R2lEEEUBdFMjLlhIrx00" name="Page-1"><mxGraphModel dx="3419" dy="1920" grid="0" gridSize="10" guides="1" tooltips="1" connect="1" arrows="1" fold="1" page="1" pageScale="1" pageWidth="1920" pageHeight="1200" math="0" shadow="1" extFonts="Permanent Marker^https://fonts.googleapis.com/css?family=Permanent+Marker"><root><mxCell id="0"/><mxCell id="1" parent="0"/><mxCell id="OnCGVRJBsnfmnJsJHSmS-2" value="UpdatePosts" style="whiteSpace=wrap;html=1;align=center;" parent="1" vertex="1"><mxGeometry x="-1301" y="-695.5" width="100" height="50" as="geometry"/></mxCell><mxCell id="OnCGVRJBsnfmnJsJHSmS-3" value="pinned" style="ellipse;whiteSpace=wrap;html=1;align=center;" parent="1" vertex="1"><mxGeometry x="-1406" y="-737" width="100" height="40" as="geometry"/></mxCell><mxCell id="OnCGVRJBsnfmnJsJHSmS-10" value="Contacts" style="whiteSpace=wrap;html=1;align=center;" parent="1" vertex="1"><mxGeometry x="-490" y="-596.5" width="100" height="50" as="geometry"/></mxCell><mxCell id="OnCGVRJBsnfmnJsJHSmS-12" value="email" style="ellipse;whiteSpace=wrap;html=1;align=center;" parent="1" vertex="1"><mxGeometry x="-490" y="-678.5" width="100" height="40" as="geometry"/></mxCell><mxCell id="OnCGVRJBsnfmnJsJHSmS-13" value="firstname" style="ellipse;whiteSpace=wrap;html=1;align=center;" parent="1" vertex="1"><mxGeometry x="-387" y="-690.5" width="100" height="40" as="geometry"/></mxCell><mxCell id="OnCGVRJBsnfmnJsJHSmS-14" value="contact_text" style="ellipse;whiteSpace=wrap;html=1;align=center;" parent="1" vertex="1"><mxGeometry x="-363" y="-553.5" width="100" height="40" as="geometry"/></mxCell><mxCell id="OnCGVRJBsnfmnJsJHSmS-15" value="&lt;u&gt;coid&lt;/u&gt;" style="ellipse;whiteSpace=wrap;html=1;align=center;" parent="1" vertex="1"><mxGeometry x="-396" y="-504.5" width="100" height="40" as="geometry"/></mxCell><mxCell id="OnCGVRJBsnfmnJsJHSmS-21" value="PageVisits" style="whiteSpace=wrap;html=1;align=center;" parent="1" vertex="1"><mxGeometry x="-794" y="-589" width="100" height="40" as="geometry"/></mxCell><mxCell id="OnCGVRJBsnfmnJsJHSmS-22" value="visit_date" style="ellipse;whiteSpace=wrap;html=1;align=center;" parent="1" vertex="1"><mxGeometry x="-904" y="-573" width="95" height="40" as="geometry"/></mxCell><mxCell id="OnCGVRJBsnfmnJsJHSmS-23" value="ipv4" style="ellipse;whiteSpace=wrap;html=1;align=center;" parent="1" vertex="1"><mxGeometry x="-668" y="-586" width="100" height="40" as="geometry"/></mxCell><mxCell id="OnCGVRJBsnfmnJsJHSmS-38" value="" style="endArrow=none;html=1;entryX=1;entryY=0;entryDx=0;entryDy=0;exitX=0;exitY=0.75;exitDx=0;exitDy=0;curved=1;" parent="1" source="OnCGVRJBsnfmnJsJHSmS-21" target="OnCGVRJBsnfmnJsJHSmS-22" edge="1"><mxGeometry width="50" height="50" relative="1" as="geometry"><mxPoint x="-1035" y="-540" as="sourcePoint"/><mxPoint x="-955" y="-590" as="targetPoint"/></mxGeometry></mxCell><mxCell id="OnCGVRJBsnfmnJsJHSmS-39" value="" style="endArrow=none;html=1;entryX=0;entryY=0.5;entryDx=0;entryDy=0;exitX=1;exitY=0.5;exitDx=0;exitDy=0;curved=1;" parent="1" source="OnCGVRJBsnfmnJsJHSmS-21" target="OnCGVRJBsnfmnJsJHSmS-23" edge="1"><mxGeometry width="50" height="50" relative="1" as="geometry"><mxPoint x="-995" y="-530" as="sourcePoint"/><mxPoint x="-1029" y="-551" as="targetPoint"/></mxGeometry></mxCell><mxCell id="OnCGVRJBsnfmnJsJHSmS-40" value="" style="endArrow=none;html=1;entryX=1;entryY=1;entryDx=0;entryDy=0;exitX=0;exitY=0;exitDx=0;exitDy=0;curved=1;" parent="1" source="OnCGVRJBsnfmnJsJHSmS-21" target="OnCGVRJBsnfmnJsJHSmS-24" edge="1"><mxGeometry width="50" height="50" relative="1" as="geometry"><mxPoint x="-745" y="-870" as="sourcePoint"/><mxPoint x="-1019" y="-541" as="targetPoint"/><Array as="points"/></mxGeometry></mxCell><mxCell id="OnCGVRJBsnfmnJsJHSmS-43" value="" style="endArrow=none;html=1;entryX=0.5;entryY=0;entryDx=0;entryDy=0;curved=1;exitX=0.25;exitY=1;exitDx=0;exitDy=0;" parent="1" source="OnCGVRJBsnfmnJsJHSmS-2" target="wlYPV-F7qflCaXFZatMz-9" edge="1"><mxGeometry width="50" height="50" relative="1" as="geometry"><mxPoint x="-1009" y="-272.5" as="sourcePoint"/><mxPoint x="-1109" y="-502.5" as="targetPoint"/></mxGeometry></mxCell><mxCell id="OnCGVRJBsnfmnJsJHSmS-47" value="" style="endArrow=none;html=1;entryX=1;entryY=1;entryDx=0;entryDy=0;exitX=0;exitY=0.25;exitDx=0;exitDy=0;curved=1;" parent="1" source="OnCGVRJBsnfmnJsJHSmS-2" target="OnCGVRJBsnfmnJsJHSmS-3" edge="1"><mxGeometry width="50" height="50" relative="1" as="geometry"><mxPoint x="-1049" y="-605" as="sourcePoint"/><mxPoint x="-1089" y="-582.5" as="targetPoint"/></mxGeometry></mxCell><mxCell id="OnCGVRJBsnfmnJsJHSmS-50" value="" style="endArrow=none;html=1;entryX=0.5;entryY=1;entryDx=0;entryDy=0;exitX=1;exitY=0;exitDx=0;exitDy=0;curved=1;" parent="1" source="OnCGVRJBsnfmnJsJHSmS-10" target="OnCGVRJBsnfmnJsJHSmS-13" edge="1"><mxGeometry width="50" height="50" relative="1" as="geometry"><mxPoint x="-574" y="-610.5" as="sourcePoint"/><mxPoint x="-509" y="-688.5" as="targetPoint"/></mxGeometry></mxCell><mxCell id="OnCGVRJBsnfmnJsJHSmS-51" value="" style="endArrow=none;html=1;entryX=0;entryY=0.5;entryDx=0;entryDy=0;exitX=1;exitY=1;exitDx=0;exitDy=0;curved=1;" parent="1" source="OnCGVRJBsnfmnJsJHSmS-10" target="OnCGVRJBsnfmnJsJHSmS-14" edge="1"><mxGeometry width="50" height="50" relative="1" as="geometry"><mxPoint x="-539" y="-608.5" as="sourcePoint"/><mxPoint x="-509" y="-628.5" as="targetPoint"/></mxGeometry></mxCell><mxCell id="OnCGVRJBsnfmnJsJHSmS-52" value="" style="endArrow=none;html=1;entryX=0;entryY=0;entryDx=0;entryDy=0;exitX=0.75;exitY=1;exitDx=0;exitDy=0;curved=1;" parent="1" source="OnCGVRJBsnfmnJsJHSmS-10" target="OnCGVRJBsnfmnJsJHSmS-15" edge="1"><mxGeometry width="50" height="50" relative="1" as="geometry"><mxPoint x="-539" y="-583.5" as="sourcePoint"/><mxPoint x="-506" y="-576.5" as="targetPoint"/></mxGeometry></mxCell><mxCell id="wlYPV-F7qflCaXFZatMz-9" value="post_href" style="ellipse;whiteSpace=wrap;html=1;align=center;" parent="1" vertex="1"><mxGeometry x="-1341" y="-624" width="100" height="40" as="geometry"/></mxCell><mxCell id="wlYPV-F7qflCaXFZatMz-40" value="contact_date" style="ellipse;whiteSpace=wrap;html=1;align=center;" parent="1" vertex="1"><mxGeometry x="-503" y="-485.5" width="100" height="40" as="geometry"/></mxCell><mxCell id="wlYPV-F7qflCaXFZatMz-42" value="" style="endArrow=none;html=1;entryX=0.5;entryY=0;entryDx=0;entryDy=0;exitX=0.5;exitY=1;exitDx=0;exitDy=0;curved=1;" parent="1" source="OnCGVRJBsnfmnJsJHSmS-10" target="wlYPV-F7qflCaXFZatMz-40" edge="1"><mxGeometry width="50" height="50" relative="1" as="geometry"><mxPoint x="-539" y="-558.5" as="sourcePoint"/><mxPoint x="-509" y="-518.5" as="targetPoint"/></mxGeometry></mxCell><mxCell id="3" value="Users" style="whiteSpace=wrap;html=1;align=center;" parent="1" vertex="1"><mxGeometry x="-797" y="-777" width="100" height="40" as="geometry"/></mxCell><mxCell id="4" value="email" style="ellipse;whiteSpace=wrap;html=1;align=center;" parent="1" vertex="1"><mxGeometry x="-684" y="-860" width="100" height="40" as="geometry"/></mxCell><mxCell id="8" value="password" style="ellipse;whiteSpace=wrap;html=1;align=center;" parent="1" vertex="1"><mxGeometry x="-933" y="-878" width="100" height="40" as="geometry"/></mxCell><mxCell id="9" value="" style="endArrow=none;html=1;exitX=0;exitY=0;exitDx=0;exitDy=0;entryX=1;entryY=1;entryDx=0;entryDy=0;curved=1;" parent="1" source="3" target="8" edge="1"><mxGeometry width="50" height="50" relative="1" as="geometry"><mxPoint x="-847" y="-757" as="sourcePoint"/><mxPoint x="-907" y="-837" as="targetPoint"/></mxGeometry></mxCell><mxCell id="12" value="" style="endArrow=none;html=1;entryX=0;entryY=1;entryDx=0;entryDy=0;exitX=1;exitY=0;exitDx=0;exitDy=0;curved=1;" parent="1" source="3" target="4" edge="1"><mxGeometry width="50" height="50" relative="1" as="geometry"><mxPoint x="-757" y="-787" as="sourcePoint"/><mxPoint x="-737" y="-827" as="targetPoint"/></mxGeometry></mxCell><mxCell id="61" value="" style="endArrow=none;html=1;entryX=0.5;entryY=1;entryDx=0;entryDy=0;exitX=0.5;exitY=0;exitDx=0;exitDy=0;curved=1;" parent="1" source="OnCGVRJBsnfmnJsJHSmS-10" target="OnCGVRJBsnfmnJsJHSmS-12" edge="1"><mxGeometry width="50" height="50" relative="1" as="geometry"><mxPoint x="-574" y="-557.5" as="sourcePoint"/><mxPoint x="-502" y="-471.5" as="targetPoint"/></mxGeometry></mxCell><mxCell id="69" value="privileges" style="ellipse;whiteSpace=wrap;html=1;align=center;" parent="1" vertex="1"><mxGeometry x="-977" y="-830" width="100" height="40" as="geometry"/></mxCell><mxCell id="70" value="" style="endArrow=none;html=1;exitX=0;exitY=0.5;exitDx=0;exitDy=0;entryX=1;entryY=1;entryDx=0;entryDy=0;curved=1;" parent="1" source="3" target="69" edge="1"><mxGeometry width="50" height="50" relative="1" as="geometry"><mxPoint x="-787" y="-767" as="sourcePoint"/><mxPoint x="-827" y="-817" as="targetPoint"/></mxGeometry></mxCell><mxCell id="71" value="lastname" style="ellipse;whiteSpace=wrap;html=1;align=center;" parent="1" vertex="1"><mxGeometry x="-334" y="-638.5" width="100" height="40" as="geometry"/></mxCell><mxCell id="72" value="" style="endArrow=none;html=1;entryX=0;entryY=0.5;entryDx=0;entryDy=0;exitX=1;exitY=0.25;exitDx=0;exitDy=0;curved=1;" parent="1" source="OnCGVRJBsnfmnJsJHSmS-10" target="71" edge="1"><mxGeometry width="50" height="50" relative="1" as="geometry"><mxPoint x="-549" y="-608.5" as="sourcePoint"/><mxPoint x="-399" y="-648.5" as="targetPoint"/></mxGeometry></mxCell><mxCell id="73" value="organization" style="ellipse;whiteSpace=wrap;html=1;align=center;" parent="1" vertex="1"><mxGeometry x="-357" y="-596.5" width="150" height="40" as="geometry"/></mxCell><mxCell id="74" value="" style="endArrow=none;html=1;entryX=0;entryY=0.5;entryDx=0;entryDy=0;exitX=1;exitY=0.5;exitDx=0;exitDy=0;curved=1;" parent="1" source="OnCGVRJBsnfmnJsJHSmS-10" target="73" edge="1"><mxGeometry width="50" height="50" relative="1" as="geometry"><mxPoint x="-539" y="-583.5" as="sourcePoint"/><mxPoint x="-357" y="-576.5" as="targetPoint"/></mxGeometry></mxCell><mxCell id="84" value="UpdateComments" style="whiteSpace=wrap;html=1;align=center;" parent="1" vertex="1"><mxGeometry x="-1187" y="-389" width="134" height="40" as="geometry"/></mxCell><mxCell id="97" value="" style="endArrow=none;html=1;exitX=0.25;exitY=0;exitDx=0;exitDy=0;entryX=0.5;entryY=1;entryDx=0;entryDy=0;curved=1;" parent="1" source="3" target="96" edge="1"><mxGeometry width="50" height="50" relative="1" as="geometry"><mxPoint x="-787" y="-767" as="sourcePoint"/><mxPoint x="-861.8544793961721" y="-842.7744321365458" as="targetPoint"/></mxGeometry></mxCell><mxCell id="128" value="register_date" style="ellipse;whiteSpace=wrap;html=1;align=center;fontSize=15;" parent="1" vertex="1"><mxGeometry x="-882" y="-927" width="100" height="40" as="geometry"/></mxCell><mxCell id="130" value="end_date" style="ellipse;whiteSpace=wrap;html=1;align=center;fontSize=15;" parent="1" vertex="1"><mxGeometry x="-441" y="-856" width="100" height="40" as="geometry"/></mxCell><mxCell id="131" value="subscription_no" style="ellipse;whiteSpace=wrap;html=1;align=center;fontSize=15;" parent="1" vertex="1"><mxGeometry x="-397" y="-810" width="130" height="40" as="geometry"/></mxCell><mxCell id="133" value="" style="endArrow=none;html=1;entryX=0.5;entryY=1;entryDx=0;entryDy=0;curved=1;" parent="1" target="132" edge="1"><mxGeometry width="50" height="50" relative="1" as="geometry"><mxPoint x="-707" y="-777" as="sourcePoint"/><mxPoint x="-642" y="-957" as="targetPoint"/></mxGeometry></mxCell><mxCell id="134" value="start_date" style="ellipse;whiteSpace=wrap;html=1;align=center;fontSize=15;" parent="1" vertex="1"><mxGeometry x="-544" y="-870" width="100" height="40" as="geometry"/></mxCell><mxCell id="135" value="deletion_date" style="ellipse;whiteSpace=wrap;html=1;align=center;fontSize=15;" parent="1" vertex="1"><mxGeometry x="-813" y="-972" width="100" height="40" as="geometry"/></mxCell><mxCell id="137" value="" style="endArrow=none;html=1;entryX=0.5;entryY=1;entryDx=0;entryDy=0;curved=1;" parent="1" target="128" edge="1"><mxGeometry width="50" height="50" relative="1" as="geometry"><mxPoint x="-787" y="-777" as="sourcePoint"/><mxPoint x="-861.8544793961648" y="-842.774432136543" as="targetPoint"/></mxGeometry></mxCell><mxCell id="138" value="" style="endArrow=none;html=1;entryX=0.5;entryY=1;entryDx=0;entryDy=0;curved=1;" parent="1" target="135" edge="1"><mxGeometry width="50" height="50" relative="1" as="geometry"><mxPoint x="-757" y="-777" as="sourcePoint"/><mxPoint x="-807" y="-967" as="targetPoint"/></mxGeometry></mxCell><mxCell id="96" value="&lt;u&gt;user_id&lt;/u&gt;" style="ellipse;whiteSpace=wrap;html=1;align=center;" parent="1" vertex="1"><mxGeometry x="-826" y="-860" width="100" height="40" as="geometry"/></mxCell><mxCell id="139" value="" style="endArrow=none;html=1;entryX=0.5;entryY=1;entryDx=0;entryDy=0;startArrow=none;exitX=0.25;exitY=0;exitDx=0;exitDy=0;curved=1;" parent="1" source="122" target="134" edge="1"><mxGeometry width="50" height="50" relative="1" as="geometry"><mxPoint x="-437" y="-867" as="sourcePoint"/><mxPoint x="-386.9976007919554" y="-952.8258324824869" as="targetPoint"/></mxGeometry></mxCell><mxCell id="140" value="" style="endArrow=none;html=1;entryX=0.5;entryY=1;entryDx=0;entryDy=0;exitX=0.5;exitY=0;exitDx=0;exitDy=0;curved=1;" parent="1" source="122" target="130" edge="1"><mxGeometry width="50" height="50" relative="1" as="geometry"><mxPoint x="-406.9999999999998" y="-857" as="sourcePoint"/><mxPoint x="-362.8599999999999" y="-947" as="targetPoint"/></mxGeometry></mxCell><mxCell id="141" value="" style="endArrow=none;html=1;entryX=0;entryY=1;entryDx=0;entryDy=0;exitX=1;exitY=0.25;exitDx=0;exitDy=0;curved=1;" parent="1" source="122" target="131" edge="1"><mxGeometry width="50" height="50" relative="1" as="geometry"><mxPoint x="-387" y="-847" as="sourcePoint"/><mxPoint x="-297.00000000000045" y="-947" as="targetPoint"/></mxGeometry></mxCell><mxCell id="122" value="Subscriptions" style="whiteSpace=wrap;html=1;align=center;fontSize=15;" parent="1" vertex="1"><mxGeometry x="-521" y="-781" width="100" height="40" as="geometry"/></mxCell><mxCell id="159" value="url" style="ellipse;whiteSpace=wrap;html=1;align=center;" parent="1" vertex="1"><mxGeometry x="-682" y="-533" width="100" height="40" as="geometry"/></mxCell><mxCell id="160" value="" style="endArrow=none;html=1;entryX=0;entryY=0;entryDx=0;entryDy=0;curved=1;exitX=0.75;exitY=1;exitDx=0;exitDy=0;" parent="1" source="OnCGVRJBsnfmnJsJHSmS-21" target="159" edge="1"><mxGeometry width="50" height="50" relative="1" as="geometry"><mxPoint x="-755" y="-544" as="sourcePoint"/><mxPoint x="-1015" y="-350" as="targetPoint"/><Array as="points"/></mxGeometry></mxCell><mxCell id="OnCGVRJBsnfmnJsJHSmS-24" value="webclient" style="ellipse;whiteSpace=wrap;html=1;align=center;" parent="1" vertex="1"><mxGeometry x="-900" y="-637" width="100" height="40" as="geometry"/></mxCell><mxCell id="173" value="ServerLogs" style="whiteSpace=wrap;html=1;align=center;" parent="1" vertex="1"><mxGeometry x="-794" y="-389" width="100" height="40" as="geometry"/></mxCell><mxCell id="189" value="&lt;u&gt;visit_no&lt;/u&gt;" style="ellipse;whiteSpace=wrap;html=1;align=center;" parent="1" vertex="1"><mxGeometry x="-691" y="-641" width="100" height="40" as="geometry"/></mxCell><mxCell id="205" value="&lt;font style=&quot;font-size: 48px&quot;&gt;Website Database Design v03&amp;nbsp;&lt;/font&gt;" style="text;html=1;strokeColor=none;fillColor=none;align=center;verticalAlign=middle;whiteSpace=wrap;rounded=0;" parent="1" vertex="1"><mxGeometry x="-1332" y="-1154" width="851" height="68" as="geometry"/></mxCell><mxCell id="206" value="" style="endArrow=none;html=1;entryX=0;entryY=1;entryDx=0;entryDy=0;exitX=1;exitY=0;exitDx=0;exitDy=0;startArrow=none;curved=1;" parent="1" source="OnCGVRJBsnfmnJsJHSmS-21" target="189" edge="1"><mxGeometry width="50" height="50" relative="1" as="geometry"><mxPoint x="-690" y="-657" as="sourcePoint"/><mxPoint x="-647" y="-625" as="targetPoint"/><Array as="points"/></mxGeometry></mxCell><mxCell id="207" value="&lt;u&gt;log_no&lt;/u&gt;" style="ellipse;whiteSpace=wrap;html=1;align=center;" parent="1" vertex="1"><mxGeometry x="-794" y="-322" width="100" height="40" as="geometry"/></mxCell><mxCell id="208" value="" style="endArrow=none;html=1;entryX=0.5;entryY=0;entryDx=0;entryDy=0;exitX=0.5;exitY=1;exitDx=0;exitDy=0;curved=1;" parent="1" source="173" target="207" edge="1"><mxGeometry width="50" height="50" relative="1" as="geometry"><mxPoint x="-757" y="-285" as="sourcePoint"/><mxPoint x="-789.5" y="-256" as="targetPoint"/></mxGeometry></mxCell><mxCell id="216" value="UpdateElements" style="whiteSpace=wrap;html=1;align=center;" parent="1" vertex="1"><mxGeometry x="-1177" y="-578" width="100" height="50" as="geometry"/></mxCell><mxCell id="217" value="" style="shape=flexArrow;endArrow=classic;html=1;rounded=0;exitX=0.75;exitY=1;exitDx=0;exitDy=0;entryX=0;entryY=0.5;entryDx=0;entryDy=0;" parent="1" source="OnCGVRJBsnfmnJsJHSmS-2" target="216" edge="1"><mxGeometry width="50" height="50" relative="1" as="geometry"><mxPoint x="-1139" y="-619" as="sourcePoint"/><mxPoint x="-1020" y="-635" as="targetPoint"/><Array as="points"><mxPoint x="-1226" y="-554"/></Array></mxGeometry></mxCell><mxCell id="219" value="" style="shape=flexArrow;endArrow=classic;html=1;rounded=0;entryX=0.25;entryY=1;entryDx=0;entryDy=0;exitX=0.25;exitY=0;exitDx=0;exitDy=0;" parent="1" source="84" target="216" edge="1"><mxGeometry width="50" height="50" relative="1" as="geometry"><mxPoint x="-1066" y="-455" as="sourcePoint"/><mxPoint x="-947" y="-507" as="targetPoint"/><Array as="points"/></mxGeometry></mxCell><mxCell id="244" value="" style="edgeStyle=orthogonalEdgeStyle;fontSize=12;html=1;endArrow=ERzeroToMany;endFill=1;rounded=0;exitX=0;exitY=0.75;exitDx=0;exitDy=0;entryX=0.25;entryY=0;entryDx=0;entryDy=0;" parent="1" source="3" target="216" edge="1"><mxGeometry width="100" height="100" relative="1" as="geometry"><mxPoint x="-864" y="-652" as="sourcePoint"/><mxPoint x="-898" y="-569" as="targetPoint"/></mxGeometry></mxCell><mxCell id="248" value="Create Elements" style="edgeLabel;html=1;align=center;verticalAlign=middle;resizable=0;points=[];" parent="244" vertex="1" connectable="0"><mxGeometry x="-0.0086" y="2" relative="1" as="geometry"><mxPoint as="offset"/></mxGeometry></mxCell><mxCell id="245" value="" style="edgeStyle=orthogonalEdgeStyle;fontSize=12;html=1;endArrow=ERzeroToMany;startArrow=ERzeroToOne;rounded=0;exitX=0.75;exitY=1;exitDx=0;exitDy=0;entryX=0.5;entryY=0;entryDx=0;entryDy=0;" parent="1" source="216" target="84" edge="1"><mxGeometry width="100" height="100" relative="1" as="geometry"><mxPoint x="-940" y="-495" as="sourcePoint"/><mxPoint x="-1113" y="-413" as="targetPoint"/><Array as="points"><mxPoint x="-1102" y="-413"/><mxPoint x="-1120" y="-413"/></Array></mxGeometry></mxCell><mxCell id="247" value="Are Children Of" style="edgeLabel;html=1;align=center;verticalAlign=middle;resizable=0;points=[];" parent="245" vertex="1" connectable="0"><mxGeometry x="-0.1158" y="1" relative="1" as="geometry"><mxPoint x="-3" as="offset"/></mxGeometry></mxCell><mxCell id="249" value="" style="edgeStyle=entityRelationEdgeStyle;fontSize=12;html=1;endArrow=ERzeroToOne;endFill=1;rounded=0;entryX=0;entryY=0.5;entryDx=0;entryDy=0;" parent="1" target="122" edge="1"><mxGeometry width="100" height="100" relative="1" as="geometry"><mxPoint x="-697" y="-761" as="sourcePoint"/><mxPoint x="-628" y="-759" as="targetPoint"/></mxGeometry></mxCell><mxCell id="250" value="Have Subscriptions" style="edgeLabel;html=1;align=center;verticalAlign=middle;resizable=0;points=[];" parent="249" vertex="1" connectable="0"><mxGeometry x="-0.006" y="-4" relative="1" as="geometry"><mxPoint as="offset"/></mxGeometry></mxCell><mxCell id="252" value="" style="fontSize=12;html=1;endArrow=ERzeroToMany;startArrow=ERzeroToOne;rounded=0;exitX=0.25;exitY=1;exitDx=0;exitDy=0;entryX=0.25;entryY=0;entryDx=0;entryDy=0;" parent="1" source="3" target="OnCGVRJBsnfmnJsJHSmS-21" edge="1"><mxGeometry width="100" height="100" relative="1" as="geometry"><mxPoint x="-751" y="-708" as="sourcePoint"/><mxPoint x="-740" y="-613" as="targetPoint"/></mxGeometry></mxCell><mxCell id="253" value="Visit" style="edgeLabel;html=1;align=center;verticalAlign=middle;resizable=0;points=[];" parent="252" vertex="1" connectable="0"><mxGeometry x="-0.4752" y="-5" relative="1" as="geometry"><mxPoint y="-1" as="offset"/></mxGeometry></mxCell><mxCell id="254" value="" style="fontSize=12;html=1;endArrow=ERzeroToMany;startArrow=ERmandOne;rounded=0;exitX=0.5;exitY=1;exitDx=0;exitDy=0;entryX=0.5;entryY=0;entryDx=0;entryDy=0;" parent="1" source="OnCGVRJBsnfmnJsJHSmS-21" target="173" edge="1"><mxGeometry width="100" height="100" relative="1" as="geometry"><mxPoint x="-712" y="-440" as="sourcePoint"/><mxPoint x="-744" y="-415" as="targetPoint"/></mxGeometry></mxCell><mxCell id="255" value="Correspond" style="edgeLabel;html=1;align=center;verticalAlign=middle;resizable=0;points=[];" parent="254" vertex="1" connectable="0"><mxGeometry x="-0.2505" y="-6" relative="1" as="geometry"><mxPoint as="offset"/></mxGeometry></mxCell><mxCell id="132" value="email_confirmed" style="ellipse;whiteSpace=wrap;html=1;align=center;fontSize=15;" parent="1" vertex="1"><mxGeometry x="-771" y="-923" width="130" height="40" as="geometry"/></mxCell><mxCell id="256" value="" style="endArrow=none;html=1;entryX=1;entryY=0;entryDx=0;entryDy=0;curved=1;exitX=0;exitY=1;exitDx=0;exitDy=0;" parent="1" source="257" target="216" edge="1"><mxGeometry width="50" height="50" relative="1" as="geometry"><mxPoint x="-1066" y="-627" as="sourcePoint"/><mxPoint x="-1035.9999999999998" y="-424" as="targetPoint"/></mxGeometry></mxCell><mxCell id="257" value="approved" style="ellipse;whiteSpace=wrap;html=1;align=center;" parent="1" vertex="1"><mxGeometry x="-1055" y="-653" width="100" height="40" as="geometry"/></mxCell><mxCell id="258" value="element_text" style="ellipse;whiteSpace=wrap;html=1;align=center;" parent="1" vertex="1"><mxGeometry x="-1055" y="-605" width="100" height="40" as="geometry"/></mxCell><mxCell id="259" value="" style="endArrow=none;html=1;entryX=1;entryY=0.25;entryDx=0;entryDy=0;exitX=0;exitY=1;exitDx=0;exitDy=0;curved=1;" parent="1" source="258" target="216" edge="1"><mxGeometry width="50" height="50" relative="1" as="geometry"><mxPoint x="-926" y="-581" as="sourcePoint"/><mxPoint x="-990.000000000005" y="-579" as="targetPoint"/></mxGeometry></mxCell><mxCell id="262" value="" style="endArrow=none;html=1;entryX=1;entryY=0.75;entryDx=0;entryDy=0;curved=1;exitX=0;exitY=0.5;exitDx=0;exitDy=0;" parent="1" source="263" target="216" edge="1"><mxGeometry width="50" height="50" relative="1" as="geometry"><mxPoint x="-1044" y="-546" as="sourcePoint"/><mxPoint x="-1067.0000000000005" y="-555.5" as="targetPoint"/></mxGeometry></mxCell><mxCell id="263" value="element_author" style="ellipse;whiteSpace=wrap;html=1;align=center;" parent="1" vertex="1"><mxGeometry x="-1053" y="-556.5" width="100" height="40" as="geometry"/></mxCell><mxCell id="265" value="element_id" style="ellipse;whiteSpace=wrap;html=1;align=center;fontStyle=4;" parent="1" vertex="1"><mxGeometry x="-1063" y="-501" width="100" height="40" as="geometry"/></mxCell><mxCell id="266" value="" style="endArrow=none;html=1;entryX=1;entryY=1;entryDx=0;entryDy=0;curved=1;exitX=0;exitY=0;exitDx=0;exitDy=0;" parent="1" source="265" target="216" edge="1"><mxGeometry width="50" height="50" relative="1" as="geometry"><mxPoint x="-1043.0000000000005" y="-526.5000000000002" as="sourcePoint"/><mxPoint x="-1067.0000000000005" y="-530.5" as="targetPoint"/></mxGeometry></mxCell><mxCell id="268" value="" style="endArrow=none;html=1;entryX=0.75;entryY=0;entryDx=0;entryDy=0;curved=1;exitX=0.5;exitY=1;exitDx=0;exitDy=0;" parent="1" source="269" target="216" edge="1"><mxGeometry width="50" height="50" relative="1" as="geometry"><mxPoint x="-1098" y="-626" as="sourcePoint"/><mxPoint x="-1092" y="-568" as="targetPoint"/></mxGeometry></mxCell><mxCell id="269" value="element_date" style="ellipse;whiteSpace=wrap;html=1;align=center;" parent="1" vertex="1"><mxGeometry x="-1140" y="-641" width="89" height="40" as="geometry"/></mxCell><mxCell id="272" value="post_title" style="ellipse;whiteSpace=wrap;html=1;align=center;" parent="1" vertex="1"><mxGeometry x="-1428" y="-678.5" width="100" height="40" as="geometry"/></mxCell><mxCell id="273" value="" style="endArrow=none;html=1;entryX=1;entryY=0.5;entryDx=0;entryDy=0;curved=1;exitX=0;exitY=0.75;exitDx=0;exitDy=0;" parent="1" source="OnCGVRJBsnfmnJsJHSmS-2" target="272" edge="1"><mxGeometry width="50" height="50" relative="1" as="geometry"><mxPoint x="-1309.8918918918919" y="-683" as="sourcePoint"/><mxPoint x="-1343" y="-634" as="targetPoint"/></mxGeometry></mxCell><mxCell id="275" value="" style="endArrow=none;html=1;entryX=0.5;entryY=1;entryDx=0;entryDy=0;curved=1;exitX=0.5;exitY=0;exitDx=0;exitDy=0;" parent="1" source="276" target="84" edge="1"><mxGeometry width="50" height="50" relative="1" as="geometry"><mxPoint x="-1125" y="-317" as="sourcePoint"/><mxPoint x="-1092" y="-568" as="targetPoint"/></mxGeometry></mxCell><mxCell id="276" value="parent_id" style="ellipse;whiteSpace=wrap;html=1;align=center;fontStyle=4;" parent="1" vertex="1"><mxGeometry x="-1170" y="-326" width="100" height="40" as="geometry"/></mxCell></root></mxGraphModel></diagram></mxfile>